# xmcd
#
# Track frame offsets:
#	150
#	11753
#	23513
#	35116
#	45519
#	55232
#	66512
#	77980
#	90903
#	99896
#	109646
#	117971
#
# Disc length: 1726 seconds
#
# Revision: 1
# Processed by: cddbd v1.5.2PL0 Copyright (c) Steve Scherf et al.
# Submitted via: audiograbber 1.83.01
#
DISCID=8f06bc0c
DTITLE=Billy Walker - Thank You For Calling
DYEAR=1964
DGENRE=Country
TTITLE0=Circumstances
TTITLE1=The Morning Paper
TTITLE2=Heart, Be Careful
TTITLE3=Thank You For Calling
TTITLE4=It's Lonesome
TTITLE5=Forever
TTITLE6=Joey's Back In Town
TTITLE7=I Call It Heaven
TTITLE8=One Way Give And Take
TTITLE9=Changed My Mind
TTITLE10=These Arms Of Mine
TTITLE11=The Man Who Had Everthing
EXTD=
EXTT0=
EXTT1=
EXTT2=
EXTT3=
EXTT4=
EXTT5=
EXTT6=
EXTT7=
EXTT8=
EXTT9=
EXTT10=
EXTT11=
PLAYORDER=
